<svg width="16" height="16" viewBox="0 0 16 16" fill="none" xmlns="http://www.w3.org/2000/svg">
<path d="M3.92857 4.57143C4.22321 4.57143 4.47545 4.67634 4.68527 4.88616C4.89509 5.09598 5 5.34821 5 5.64286V12.9286C5 13.2232 4.89509 13.4754 4.68527 13.6853C4.47545 13.8951 4.22321 14 3.92857 14H3.07143C2.77679 14 2.52455 13.8951 2.31473 13.6853C2.10491 13.4754 2 13.2232 2 12.9286V5.64286C2 5.34821 2.10491 5.09598 2.31473 4.88616C2.52455 4.67634 2.77679 4.57143 3.07143 4.57143H3.92857ZM13.1429 5.66295C13.4018 5.81473 13.6094 6.02232 13.7656 6.28571C13.9219 6.54911 14 6.83482 14 7.14286V12.2857C14 12.7589 13.8326 13.1629 13.4978 13.4978C13.1629 13.8326 12.7589 14 12.2857 14H6.5C6.20536 14 5.95313 13.8951 5.7433 13.6853C5.53348 13.4754 5.42857 13.2232 5.42857 12.9286V2.64286C5.42857 2.46429 5.49107 2.3125 5.61607 2.1875C5.74107 2.0625 5.89286 2 6.07143 2H10.5714C10.75 2 10.9464 2.04464 11.1607 2.13393C11.375 2.22321 11.5446 2.33036 11.6696 2.45536L12.6875 3.47321C12.8125 3.59821 12.9196 3.76786 13.0089 3.98214C13.0982 4.19643 13.1429 4.39286 13.1429 4.57143V5.66295ZM8.21429 12.2857V11.4286C8.21429 11.3661 8.1942 11.3147 8.15402 11.2746C8.11384 11.2344 8.0625 11.2143 8 11.2143H7.14286C7.08036 11.2143 7.02902 11.2344 6.98884 11.2746C6.94866 11.3147 6.92857 11.3661 6.92857 11.4286V12.2857C6.92857 12.3482 6.94866 12.3996 6.98884 12.4397C7.02902 12.4799 7.08036 12.5 7.14286 12.5H8C8.0625 12.5 8.11384 12.4799 8.15402 12.4397C8.1942 12.3996 8.21429 12.3482 8.21429 12.2857ZM8.21429 10.5714V9.71429C8.21429 9.65179 8.1942 9.60045 8.15402 9.56027C8.11384 9.52009 8.0625 9.5 8 9.5H7.14286C7.08036 9.5 7.02902 9.52009 6.98884 9.56027C6.94866 9.60045 6.92857 9.65179 6.92857 9.71429V10.5714C6.92857 10.6339 6.94866 10.6853 6.98884 10.7254C7.02902 10.7656 7.08036 10.7857 7.14286 10.7857H8C8.0625 10.7857 8.11384 10.7656 8.15402 10.7254C8.1942 10.6853 8.21429 10.6339 8.21429 10.5714ZM8.21429 8.85714V8C8.21429 7.9375 8.1942 7.88616 8.15402 7.84598C8.11384 7.8058 8.0625 7.78571 8 7.78571H7.14286C7.08036 7.78571 7.02902 7.8058 6.98884 7.84598C6.94866 7.88616 6.92857 7.9375 6.92857 8V8.85714C6.92857 8.91964 6.94866 8.97098 6.98884 9.01116C7.02902 9.05134 7.08036 9.07143 7.14286 9.07143H8C8.0625 9.07143 8.11384 9.05134 8.15402 9.01116C8.1942 8.97098 8.21429 8.91964 8.21429 8.85714ZM9.92857 12.2857V11.4286C9.92857 11.3661 9.90848 11.3147 9.8683 11.2746C9.82812 11.2344 9.77679 11.2143 9.71429 11.2143H8.85714C8.79464 11.2143 8.7433 11.2344 8.70312 11.2746C8.66295 11.3147 8.64286 11.3661 8.64286 11.4286V12.2857C8.64286 12.3482 8.66295 12.3996 8.70312 12.4397C8.7433 12.4799 8.79464 12.5 8.85714 12.5H9.71429C9.77679 12.5 9.82812 12.4799 9.8683 12.4397C9.90848 12.3996 9.92857 12.3482 9.92857 12.2857ZM9.92857 10.5714V9.71429C9.92857 9.65179 9.90848 9.60045 9.8683 9.56027C9.82812 9.52009 9.77679 9.5 9.71429 9.5H8.85714C8.79464 9.5 8.7433 9.52009 8.70312 9.56027C8.66295 9.60045 8.64286 9.65179 8.64286 9.71429V10.5714C8.64286 10.6339 8.66295 10.6853 8.70312 10.7254C8.7433 10.7656 8.79464 10.7857 8.85714 10.7857H9.71429C9.77679 10.7857 9.82812 10.7656 9.8683 10.7254C9.90848 10.6853 9.92857 10.6339 9.92857 10.5714ZM9.92857 8.85714V8C9.92857 7.9375 9.90848 7.88616 9.8683 7.84598C9.82812 7.8058 9.77679 7.78571 9.71429 7.78571H8.85714C8.79464 7.78571 8.7433 7.8058 8.70312 7.84598C8.66295 7.88616 8.64286 7.9375 8.64286 8V8.85714C8.64286 8.91964 8.66295 8.97098 8.70312 9.01116C8.7433 9.05134 8.79464 9.07143 8.85714 9.07143H9.71429C9.77679 9.07143 9.82812 9.05134 9.8683 9.01116C9.90848 8.97098 9.92857 8.91964 9.92857 8.85714ZM11.6429 12.2857V11.4286C11.6429 11.3661 11.6228 11.3147 11.5826 11.2746C11.5424 11.2344 11.4911 11.2143 11.4286 11.2143H10.5714C10.5089 11.2143 10.4576 11.2344 10.4174 11.2746C10.3772 11.3147 10.3571 11.3661 10.3571 11.4286V12.2857C10.3571 12.3482 10.3772 12.3996 10.4174 12.4397C10.4576 12.4799 10.5089 12.5 10.5714 12.5H11.4286C11.4911 12.5 11.5424 12.4799 11.5826 12.4397C11.6228 12.3996 11.6429 12.3482 11.6429 12.2857ZM11.6429 10.5714V9.71429C11.6429 9.65179 11.6228 9.60045 11.5826 9.56027C11.5424 9.52009 11.4911 9.5 11.4286 9.5H10.5714C10.5089 9.5 10.4576 9.52009 10.4174 9.56027C10.3772 9.60045 10.3571 9.65179 10.3571 9.71429V10.5714C10.3571 10.6339 10.3772 10.6853 10.4174 10.7254C10.4576 10.7656 10.5089 10.7857 10.5714 10.7857H11.4286C11.4911 10.7857 11.5424 10.7656 11.5826 10.7254C11.6228 10.6853 11.6429 10.6339 11.6429 10.5714ZM11.6429 8.85714V8C11.6429 7.9375 11.6228 7.88616 11.5826 7.84598C11.5424 7.8058 11.4911 7.78571 11.4286 7.78571H10.5714C10.5089 7.78571 10.4576 7.8058 10.4174 7.84598C10.3772 7.88616 10.3571 7.9375 10.3571 8V8.85714C10.3571 8.91964 10.3772 8.97098 10.4174 9.01116C10.4576 9.05134 10.5089 9.07143 10.5714 9.07143H11.4286C11.4911 9.07143 11.5424 9.05134 11.5826 9.01116C11.6228 8.97098 11.6429 8.91964 11.6429 8.85714ZM12.2857 6.28571V4.57143H11.2143C11.0357 4.57143 10.8839 4.50893 10.7589 4.38393C10.6339 4.25893 10.5714 4.10714 10.5714 3.92857V2.85714H6.28571V6.28571H12.2857Z" fill="white"/>
</svg>
